<svg height="512pt" viewBox="0 -5 512 511" width="512pt" xmlns="http://www.w3.org/2000/svg"><path d="m226.855469 249.269531c0-26.945312-21.847657-48.792969-48.792969-48.792969-5.910156 0-11.570312 1.050782-16.808594 2.976563-10.839844-14.933594-28.421875-24.652344-48.285156-24.652344-23.382812 0-43.609375 13.460938-53.382812 33.050781-2.039063-.292968-4.128907-.453124-6.25-.453124-23.933594-.003907-43.335938 19.398437-43.335938 43.332031h216.542969c.199219-1.792969.3125-3.613281.3125-5.460938zm0 0" fill="#4bc6ff"/><path d="m226.542969 264.730469h-216.542969c-5.523438 0-10-4.480469-10-10 0-29.628907 24.328125-53.691407 53.992188-53.332031 12.6875-20.269532 34.710937-32.601563 58.976562-32.601563 19.8125 0 38.714844 8.554687 51.847656 23.179687 4.324219-.996093 8.753906-1.5 13.246094-1.5 32.417969 0 58.792969 26.375 58.792969 58.792969 0 2.132813-.125 4.34375-.375 6.566407-.5625 5.0625-4.84375 8.894531-9.9375 8.894531zm-205.011719-20h195.058594c-2.253906-19.261719-18.671875-34.253907-38.527344-34.253907-4.597656 0-9.09375.796876-13.367188 2.363282-4.199218 1.542968-8.910156.105468-11.539062-3.515625-9.328125-12.855469-24.351562-20.527344-40.1875-20.527344-18.941406 0-35.964844 10.546875-44.433594 27.519531-1.925781 3.859375-6.113281 6.0625-10.382812 5.433594-1.609375-.234375-3.230469-.355469-4.816406-.355469-14.898438 0-27.546876 9.824219-31.804688 23.335938zm0 0"/><path d="m128.996094 452.226562h366.832031c-16.769531-52.347656-65.835937-90.246093-123.753906-90.246093h-361.976563v90.246093" fill="#db9970"/><path d="m10.097656 452.226562v39.675782h491.902344c0-13.835938-2.164062-27.171875-6.171875-39.675782" fill="#fcc595"/><path d="m237.363281 361.980469h-227.265625v90.246093" fill="#db9970"/><path d="m90.398438 462.222656c-.648438 0-1.308594-.058594-1.957032-.191406-.632812-.128906-1.261718-.320312-1.871094-.570312-.601562-.25-1.179687-.558594-1.71875-.917969-.550781-.359375-1.0625-.78125-1.523437-1.242188-.457031-.457031-.878906-.976562-1.25-1.519531-.359375-.550781-.667969-1.128906-.917969-1.730469-.25-.597656-.441406-1.226562-.570312-1.867187-.128906-.648438-.191406-1.300782-.191406-1.960938 0-.648437.0625-1.300781.191406-1.949218.128906-.640626.320312-1.269532.570312-1.871094.25-.601563.558594-1.179688.917969-1.730469.371094-.539063.792969-1.058594 1.25-1.519531.460937-.460938.972656-.878906 1.523437-1.238282.539063-.359374 1.117188-.671874 1.71875-.921874.609376-.25 1.238282-.4375 1.871094-.570313 1.289063-.257813 2.617188-.257813 3.910156 0 .636719.132813 1.269532.320313 1.867188.570313.609375.25 1.191406.5625 1.730469.921874.550781.359376 1.0625.777344 1.519531 1.238282.460938.460937.882812.980468 1.242188 1.519531.359374.550781.667968 1.132813.917968 1.730469.25.601562.441406 1.230468.570313 1.871094.128906.648437.199219 1.300781.199219 1.949218 0 .660156-.070313 1.3125-.199219 1.960938-.128907.640625-.320313 1.269531-.570313 1.867187-.25.601563-.558594 1.179688-.917968 1.730469-.359376.539062-.78125 1.0625-1.242188 1.519531-1.859375 1.859375-4.4375 2.921875-7.070312 2.921875zm0 0"/><path d="m350.898438 41.867188-32.894532-31.367188-32.894531 31.367188v41.726562h65.789063zm0 0" fill="#e6e6e6"/><path d="m368.578125 134.167969h-101.152344l-4.371093 71.039062h109.898437zm0 0" fill="#e6e6e6"/><path d="m263.054688 205.207031-4.371094 71.039063h118.640625l-4.371094-71.039063zm0 0" fill="#ff5046"/><path d="m215.003906 399.21875-3.863281 53.007812h213.722656l-3.859375-53.007812zm0 0" fill="#26ade4"/><path d="m393.25 343.867188h-150.492188l-5.394531 55.351562h161.277344zm0 0" fill="#ff5046"/><path d="m381.484375 343.867188-4.160156-67.621094h-118.640625l-4.164063 67.621094zm0 0" fill="#e6e6e6"/><path d="m274.210938 83.59375h87.585937v50.574219h-87.585937zm0 0" fill="#a7dbd8"/><path d="m505.351562 449.175781c-14.96875-46.726562-53.402343-82.171875-100.894531-93.425781l-1.253906-12.851562c-.5-5.121094-4.804687-9.027344-9.953125-9.027344h-2.359375l-12.328125-200.316406c-.257812-4.15625-3.023438-7.585938-6.765625-8.855469v-31.105469h3.839844c5.519531 0 10-4.476562 10-10s-4.480469-10-10-10h-14.738281v-31.726562c0-2.734376-1.121094-5.351563-3.097657-7.238282l-32.898437-31.367187c-3.863282-3.683594-9.9375-3.683594-13.800782 0l-32.894531 31.367187c-1.980469 1.890625-3.097656 4.503906-3.097656 7.238282v31.726562h-14.738281c-5.523438 0-10 4.476562-10 10s4.476562 10 10 10h3.839844v31.101562c-3.746094 1.273438-6.511719 4.703126-6.765626 8.859376l-12.332031 200.3125h-2.359375c-5.148437 0-9.453125 3.90625-9.953125 9.03125l-.886719 9.082031h-221.816406c-5.523437 0-9.9999998 4.480469-9.9999998 10v129.921875c0 5.523437 4.4765628 10 9.9999998 10h491.902344c5.523438 0 10-4.476563 10-10 0-14.582032-2.234375-28.957032-6.648438-42.726563zm-24.082031-6.949219h-47.105469l-3.1875-43.734374c-.378906-5.230469-4.730468-9.273438-9.972656-9.273438h-13.289062l-1.1875-12.21875c33.148437 9.914062 60.441406 33.785156 74.742187 65.226562zm-229.441406-88.359374h132.347656l3.445313 35.351562h-139.234375zm159.878906 55.351562 2.402344 33.007812h-192.210937l2.402343-33.007812zm-139.25-194.011719h91.09375l3.140625 51.039063h-97.375zm4.371094-71.039062h82.347656l3.140625 51.039062h-88.625zm18.28125-98.019531 22.894531-21.832032 22.894532 21.832032v27.445312h-45.789063zm56.6875 47.445312v30.574219h-67.585937v-30.574219zm-83.710937 192.652344h99.835937l2.929687 47.621094h-105.699218zm-247.988282 195.65625v-109.921875h209.871094l-1.679688 17.234375h-13.285156c-5.242187 0-9.59375 4.046875-9.976562 9.273437l-3.183594 43.734375h-72.847656c-5.523438 0-10 4.480469-10 10 0 5.523438 4.476562 10 10 10h359.304687c1.640625 6.445313 2.738281 13.023438 3.289063 19.679688zm0 0"/><path d="m217.996094 76.941406c0 29.113282-23.597656 52.710938-52.710938 52.710938-29.113281 0-52.714844-23.597656-52.714844-52.710938 0-29.113281 23.601563-52.714844 52.714844-52.714844 29.113282 0 52.710938 23.601563 52.710938 52.714844zm0 0" fill="#f7bb50"/><path d="m165.285156 139.652344c-34.582031 0-62.714844-28.132813-62.714844-62.714844 0-34.578125 28.132813-62.710938 62.714844-62.710938 34.582032 0 62.714844 28.132813 62.714844 62.710938 0 34.582031-28.132812 62.714844-62.714844 62.714844zm0-105.425782c-23.554687 0-42.714844 19.160157-42.714844 42.710938 0 23.554688 19.164063 42.714844 42.714844 42.714844 23.554688 0 42.714844-19.160156 42.714844-42.714844 0-23.550781-19.160156-42.710938-42.714844-42.710938zm0 0"/></svg>